<?xml version="1.0" encoding="utf-8"?>
<!-- Generator: Adobe Illustrator 26.2.1, SVG Export Plug-In . SVG Version: 6.00 Build 0)  -->
<svg version="1.1" id="Capa_1" xmlns="http://www.w3.org/2000/svg" xmlns:xlink="http://www.w3.org/1999/xlink" x="0px" y="0px"
	 viewBox="0 0 895 141" style="enable-background:new 0 0 895 141;" xml:space="preserve">
<g>
	<g>
		<path class="st0" d="M173.15,70.69l-11.95-5.26c-8.92-3.98-12.27-6.53-12.27-12.11c0-6.53,5.58-10.2,13.06-10.2
			c7.97,0,14.66,3.98,20.07,12.11l14.66-11.31C190.2,31.81,178.09,24,162,24c-19.91,0-34.89,11.79-34.89,29.79
			c0,14.02,9.4,23.1,25.49,30.27l11.31,5.1c10.04,4.62,13.38,6.85,13.38,13.07c0,7.17-5.58,11.63-14.98,11.63
			c-11.47,0-18.96-5.89-25.81-15.3l-14.82,11.15c8.13,14.18,22.78,23.26,40.63,23.26c21.03,0,36.8-12.27,36.8-31.55
			C199.12,87.26,190.84,78.49,173.15,70.69z"/>
		<path class="st0" d="M256.64,50.45c-8.76,0-16.41,3.19-21.67,8.44V11.58h-21.51v119.5h21.51V85.19c0-9.08,6.21-15.3,14.97-15.3
			c8.77,0,14.66,6.21,14.66,15.3v45.89h21.35V82.16C285.96,63.04,274.48,50.45,256.64,50.45z"/>
		<path class="st0" d="M335.82,50.45c-13.86,0-25.33,5.42-34.42,16.25l11.16,13.22c7.01-7.49,12.74-10.83,20.87-10.83
			c9.56,0,14.66,5.1,14.66,13.86v3.51h-19.75c-18.32,0-29.8,8.76-29.8,22.94c0,13.86,10.52,23.58,27.25,23.58
			c10.04,0,18.32-3.67,24.06-9.56v7.65h19.75V84.23C369.6,62.4,356.37,50.45,335.82,50.45z M348.09,101.6
			c0,9.08-7.17,15.61-16.57,15.61c-6.85,0-11.31-3.35-11.31-8.6c0-5.26,3.98-7.97,10.99-7.97h16.89V101.6z"/>
		<path class="st0" d="M406.87,61.61v-9.4h-19.75v78.87h21.51V91.72c0-13.54,8.28-20.55,21.19-20.55h5.74V52.2
			c-2.07-0.64-4.3-0.96-7.01-0.96C419.78,51.25,412.13,55.07,406.87,61.61z"/>
		<path class="st0" d="M480.96,50.45c-22.78-0.48-41.74,18.48-41.26,41.27c-0.48,22.78,18.8,41.75,43.18,41.27
			c11.63,0,22.15-3.98,31.55-11.79l-8.93-14.66c-6.85,5.26-14.18,7.97-21.99,7.97c-11.47,0-19.6-5.58-22.15-15.61h55.29
			c0.96-3.98,1.43-7.97,1.43-11.79C518.08,66.55,502.79,50.45,480.96,50.45z M461.36,83.75c2.39-9.72,9.72-15.93,18.8-15.93
			c9.4,0,16.89,6.21,17.05,15.93H461.36z"/>
		<rect x="588.5" y="11.58" class="st0" width="21.51" height="119.5"/>
		<path class="st0" d="M535.28,39.3V52.2h-11.15v18.16h11.15v60.7h21.51v-60.7h17.37V52.2h-17.37V41.21
			c0-8.92,4.62-12.27,14.34-12.27c1.91,0,3.98,0.16,6.37,0.48v-18c-3.67-1.12-7.65-1.75-11.79-1.75
			C546.75,9.66,535.28,19.54,535.28,39.3z"/>
		<path class="st0" d="M665.93,50.45c-23.1-0.48-42.7,18.64-42.22,41.11c-0.48,22.46,18.96,41.74,42.06,41.27
			c23.1,0.48,43.02-18.8,42.54-41.27C708.79,69.09,689.03,50.13,665.93,50.45z M665.93,113.07c-11.95,0-20.39-9.08-20.39-21.35
			c0-12.59,8.45-21.67,20.39-21.67c11.63,0,20.39,9.4,20.39,21.67C686.32,103.99,677.56,113.07,665.93,113.07z"/>
		<polygon class="st0" points="819.99,52.2 801.67,96.18 779.84,50.45 772.67,50.45 751.16,97.14 732.52,52.2 709.9,52.2 
			746.54,132.99 753.55,132.99 776.34,87.1 798.96,132.99 805.98,132.99 842.62,52.2 		"/>
		<g>
			<g>
				<g>
					<path class="st0" d="M860.36,56.49h-6.75v-3.91h17.86v3.91h-6.79v17.22h-4.32V56.49z"/>
					<path class="st0" d="M895,52.2v21.51h-4.32V62.45l-5.31,6.66h-1.41l-5.31-6.66v11.27h-4.32V52.2h1.41l8.93,11.43l8.93-11.43
						H895z"/>
				</g>
			</g>
		</g>
		<g>
			<path class="st0" d="M80.93,30.36c-5.74,0.15-9.63,4.31-9.72,10.8c-0.13,9.09-0.03,18.18-0.03,27.26c-0.01,0-0.02,0-0.03,0
				c0,8.65,0.05,17.3-0.01,25.94c-0.1,14.75-11.43,26.15-25.8,26.07c-14.35-0.09-24.29-11.64-25.55-26.36
				c-0.45-5.28,0.01-22.52-0.32-26.62c-0.44-5.67-4.62-8.81-10.75-8.56c-5.35,0.21-9.11,3.81-9.21,9.17
				c-0.13,7.82-0.13,15.64,0,23.45c0.01,0.44,0.2,5.23,0.3,7.03c1.23,22.94,20.99,41.89,43.79,42.45
				c24.15,0.59,45.65-17.05,47.25-40.54c1.35-19.84,0.77-39.83,0.72-59.75C91.54,34.06,87.07,30.2,80.93,30.36z"/>
			<path class="st0" d="M9.69,51.46c5.65-0.04,10.1-4.64,10.08-10.44c-0.01-5.89-4.35-10.31-10.13-10.33
				C3.8,30.67-1.02,35.54-0.88,41.31C-0.74,46.89,4.05,51.5,9.69,51.46z"/>
			<path class="st0" d="M81.78,22.41c5.79-0.02,10.38-4.89,10.21-10.83C91.82,5.84,87.24,1.53,81.4,1.64
				c-5.57,0.11-10.27,5-10.13,10.56C71.4,17.78,76.19,22.43,81.78,22.41z"/>
			<path class="st0" d="M44.42,36.46c5.5,0.31,10.25-3.97,10.52-9.47c0.28-5.75-3.72-10.21-9.4-10.46
				c-5.78-0.26-10.28,3.73-10.52,9.34C34.79,31.47,38.94,36.15,44.42,36.46z"/>
			<path class="st0" d="M34.94,67.17c0.01,5.19,0.02,10.38,0.02,15.57c0.01,4.02,0.01,8.04,0.02,12.07c0,2.63,0.26,4.99,2.15,7.04
				c2.14,2.33,5.44,3.5,8.6,3.49c5.35-0.01,9.11-3.72,9.21-8.96c0.09-5.29,0.22-39.48-0.06-41.84c-0.55-4.54-4.23-8.37-10.75-8.36
				c-5.35,0.01-9.11,3.72-9.21,8.96c0,0.39,0,0.79,0,1.18C34.93,59.93,34.93,63.55,34.94,67.17z"/>
		</g>
	</g>
</g>
</svg>
